<?xml version="1.0" standalone="no"?>
<!DOCTYPE svg PUBLIC "-//W3C//DTD SVG 20010904//EN"
 "http://www.w3.org/TR/2001/REC-SVG-20010904/DTD/svg10.dtd">
<svg version="1.0" xmlns="http://www.w3.org/2000/svg"
 width="1618.000000pt" height="1618.000000pt" viewBox="0 0 1618.000000 1618.000000"
 preserveAspectRatio="xMidYMid meet">
<metadata>
Created by potrace 1.11, written by Peter Selinger 2001-2013
</metadata>
<g transform="translate(0.000000,1618.000000) scale(0.100000,-0.100000)"
fill="#000000" stroke="none">
<path d="M3652 13291 c-55 -32 -106 -61 -113 -65 -8 -4 -23 -12 -34 -19 -11
-7 -56 -33 -100 -58 -44 -25 -222 -128 -395 -229 -173 -100 -339 -196 -368
-212 -30 -17 -97 -56 -150 -87 -54 -31 -104 -60 -112 -64 -8 -4 -29 -15 -45
-26 -17 -10 -120 -70 -230 -133 -110 -64 -216 -125 -235 -136 -19 -12 -46 -27
-60 -35 -14 -7 -128 -73 -255 -146 -126 -74 -246 -142 -265 -153 -53 -31 -498
-288 -735 -425 -66 -39 -151 -88 -188 -109 -38 -21 -92 -52 -121 -69 -28 -16
-95 -55 -149 -85 l-97 -55 0 -4177 0 -4178 1030 0 1030 0 0 1260 0 1260 58 1
c31 0 1256 1 2722 2 l2665 2 0 2914 0 2915 -85 49 c-47 27 -103 59 -125 72
-34 19 -240 139 -285 165 -126 73 -470 272 -620 358 -19 11 -150 86 -290 167
-140 81 -275 159 -300 173 -25 14 -78 44 -117 68 -40 24 -75 44 -78 44 -3 0
-18 8 -33 19 -23 15 -347 204 -477 277 -22 12 -224 129 -450 259 -225 131
-429 248 -452 261 -70 40 -337 194 -353 204 -8 5 -31 18 -51 29 l-37 20 -100
-58z m346 -2294 c101 -59 188 -107 193 -107 5 0 9 -4 9 -10 0 -5 4 -10 10 -10
5 0 44 -21 87 -46 43 -25 102 -59 131 -75 29 -17 74 -43 100 -59 26 -16 63
-37 82 -46 19 -10 54 -30 77 -46 23 -15 44 -28 47 -28 4 0 36 -18 72 -40 36
-22 68 -40 70 -40 2 0 32 -17 66 -38 35 -21 88 -52 118 -69 65 -36 513 -294
519 -299 3 -3 5 -2707 2 -2789 -1 -20 -8 -20 -1828 -20 l-1828 0 0 1403 0
1404 90 52 c106 62 485 281 533 308 18 10 102 58 185 107 84 48 183 105 220
127 38 21 83 47 100 58 18 10 138 79 267 154 129 74 280 161 334 193 l99 57
31 -17 c17 -10 113 -66 214 -124z"/>
<path d="M12390 13331 c-32 -16 -384 -219 -660 -381 -50 -29 -218 -126 -235
-136 -39 -21 -182 -103 -330 -189 -82 -48 -168 -98 -190 -110 -22 -13 -96 -56
-165 -95 -69 -40 -150 -86 -180 -103 -30 -16 -62 -35 -70 -41 -15 -11 -30 -20
-109 -64 -25 -14 -140 -80 -256 -147 -416 -241 -551 -318 -580 -335 -16 -9
-75 -43 -130 -75 -270 -156 -484 -280 -525 -303 -25 -13 -49 -28 -55 -32 -5
-4 -30 -19 -55 -32 -121 -68 -175 -100 -180 -108 -3 -4 -5 -1317 -5 -2917 l0
-2908 2718 -1 c1495 -1 2721 -4 2724 -7 3 -4 6 -571 6 -1262 l0 -1255 1031 0
1031 0 0 4174 c0 2296 -2 4176 -5 4178 -6 5 -94 57 -130 77 -14 8 -63 37 -110
64 -47 27 -98 57 -115 67 -319 183 -653 376 -738 426 -59 35 -109 64 -111 64
-2 0 -61 34 -131 75 -69 41 -131 75 -136 75 -5 0 -9 5 -9 10 0 6 -3 9 -7 8 -5
-1 -19 5 -33 14 -22 14 -158 93 -260 150 -19 11 -123 71 -230 133 -316 183
-832 481 -872 504 -92 51 -250 143 -278 160 -31 19 -235 136 -255 146 -11 6
-39 22 -62 38 -24 15 -45 27 -48 27 -2 0 -33 17 -67 38 -158 96 -149 92 -188
73z m495 -2461 c165 -95 317 -183 337 -196 21 -13 40 -24 43 -24 3 0 22 -11
43 -23 20 -13 57 -35 82 -49 47 -27 194 -113 220 -128 8 -5 58 -33 110 -63 52
-30 151 -87 220 -127 69 -40 150 -86 180 -103 30 -17 71 -41 92 -53 l36 -23
-1 -1403 -2 -1403 -1815 -1 c-998 0 -1820 2 -1826 4 -9 2 -11 368 -10 1405 l1
1401 210 121 c116 67 271 157 345 200 326 188 467 269 495 284 17 9 32 19 33
24 2 4 7 7 11 7 5 0 86 45 182 101 96 56 215 124 264 152 50 29 99 57 110 64
11 7 27 15 35 19 8 4 43 25 78 45 l64 37 82 -47 c44 -27 216 -126 381 -221z"/>
</g>
</svg>
